# xmcd
#
# Track frame offsets: 
#        150
#        7562
#        21609
#        38300
#        58525
#        73260
#        95620
#        106560
#        127078
#        146460
#        164291
#        174498
#
# Disc length: 2706 seconds
#
# Revision: 0
# Processed by: cddbd v1.5.2PL0 Copyright (c) Steve Scherf et al.
# Submitted via: ExactAudioCopyFreeDBPlugin 1.0
#
DISCID=930a900c
DTITLE=Mark Ronson - Uptown Special
DYEAR=2015
DGENRE=Funk
TTITLE0=Uptown's First Finale featuring Stevie Wonder and Andrew Wyatt
TTITLE1=Summer Breaking featuring Kevin Parker
TTITLE2=Feel Right featuring Mystikal
TTITLE3=Uptown Funk featuring Bruno Mars
TTITLE4=I Can't Lose featuring Keyone Starr
TTITLE5=Daffodils featuring Kevin Parker
TTITLE6=Crack in the Pearl featuring Andrew Wyatt
TTITLE7=In Case of Fire featuring Jeff Bhasker
TTITLE8=Leaving Los Feliz featuring Kevin Parker
TTITLE9=Heavy and Rolling featuring Andrew Wyatt
TTITLE10=Crack in the Pearl Pt. II featuring Stevie Wonder and Jeff Bh
TTITLE10=asker
TTITLE11=Uptown Funk featuring Bruno Mars (BB Disco Dub Mix)
EXTD=
EXTT0=
EXTT1=
EXTT2=
EXTT3=
EXTT4=
EXTT5=
EXTT6=
EXTT7=
EXTT8=
EXTT9=
EXTT10=
EXTT11=
PLAYORDER=
